<svg width="632" height="110" viewBox="0 0 632 110" fill="none" xmlns="http://www.w3.org/2000/svg">
<path d="M176.789 86.5441H170V23.4559H184.646C189.689 23.4559 193.504 24.6529 196.091 27.0471C198.742 29.4412 200.067 32.7735 200.067 37.0441V53.5441C200.067 57.8794 198.774 61.2441 196.188 63.6382C193.601 65.9677 189.754 67.1324 184.646 67.1324H176.789V86.5441ZM193.278 53.5441V37.0441C193.278 34.5853 192.534 32.6765 191.047 31.3176C189.56 29.9588 187.426 29.2794 184.646 29.2794H176.789V61.3088H184.646C190.401 61.3088 193.278 58.7206 193.278 53.5441Z" fill="white"/>
<path d="M222.372 86.5441H215.582V23.4559H230.228C235.272 23.4559 239.087 24.6529 241.673 27.0471C244.324 29.4412 245.65 32.7735 245.65 37.0441V50.6324C245.65 57.2324 242.805 61.4382 237.115 63.25L249.045 86.5441H241.576L230.228 64.2206H222.372V86.5441ZM238.86 50.6324V37.0441C238.86 34.5853 238.117 32.6765 236.63 31.3176C235.142 29.9588 233.009 29.2794 230.228 29.2794H222.372V58.3971H230.228C235.983 58.3971 238.86 55.8088 238.86 50.6324Z" fill="white"/>
<path d="M294.18 35.5882V74.4118C294.18 78.7471 292.79 82.1118 290.009 84.5059C287.293 86.8353 283.187 88 277.691 88C272.26 88 268.154 86.8353 265.373 84.5059C262.593 82.1118 261.203 78.7471 261.203 74.4118V35.5882C261.203 31.2529 262.56 27.9206 265.276 25.5912C268.057 23.1971 272.163 22 277.594 22C283.09 22 287.229 23.1971 290.009 25.5912C292.79 27.9206 294.18 31.2529 294.18 35.5882ZM287.39 74.4118V35.5882C287.39 30.4118 284.157 27.8235 277.691 27.8235C271.225 27.8235 267.992 30.4118 267.992 35.5882V74.4118C267.992 79.5882 271.225 82.1765 277.691 82.1765C284.157 82.1765 287.39 79.5882 287.39 74.4118Z" fill="white"/>
<path d="M318.89 86.5441H312.101V23.4559H322.285L333.342 65.0941L344.496 23.4559H354.68V86.5441H347.891V34.3265L336.542 76.8382H330.238L318.89 34.3265V86.5441Z" fill="white"/>
<path d="M379.866 86.5441H373.077V23.4559H387.722C392.766 23.4559 396.581 24.6529 399.167 27.0471C401.818 29.4412 403.144 32.7735 403.144 37.0441V53.5441C403.144 57.8794 401.851 61.2441 399.264 63.6382C396.678 65.9677 392.831 67.1324 387.722 67.1324H379.866V86.5441ZM396.355 53.5441V37.0441C396.355 34.5853 395.611 32.6765 394.124 31.3176C392.637 29.9588 390.503 29.2794 387.722 29.2794H379.866V61.3088H387.722C393.477 61.3088 396.355 58.7206 396.355 53.5441Z" fill="white"/>
<path d="M443.847 23.4559V29.2794H431.238V86.5441H424.449V29.2794H411.84V23.4559H443.847Z" fill="white"/>
<path d="M512.56 74.4118C512.56 83.4706 507.096 88 496.169 88C485.241 88 479.777 83.4706 479.777 74.4118V66.1618H486.566V74.8C486.566 77.1294 487.375 78.9412 488.991 80.2353C490.608 81.5294 493 82.1765 496.169 82.1765C499.337 82.1765 501.729 81.5294 503.346 80.2353C504.962 78.9412 505.771 77.1941 505.771 74.9941C505.771 72.7294 505.512 70.95 504.995 69.6559C504.542 68.2971 503.572 66.8735 502.085 65.3853L485.014 48.6912C483.01 46.6853 481.62 44.7441 480.844 42.8676C480.133 40.9265 479.777 38.5 479.777 35.5882C479.777 31.2529 481.102 27.9206 483.754 25.5912C486.469 23.1971 490.543 22 495.975 22C506.385 22 511.59 26.5294 511.59 35.5882V43.8382H504.801V35.2C504.801 32.8706 504.025 31.0588 502.473 29.7647C500.986 28.4706 498.723 27.8235 495.684 27.8235C492.644 27.8235 490.349 28.4706 488.797 29.7647C487.31 31.0588 486.566 32.8382 486.566 35.1029C486.566 37.3676 486.793 39.1471 487.245 40.4412C487.698 41.7353 488.7 43.0941 490.252 44.5176L507.614 61.2118C509.489 63.2824 510.782 65.2882 511.493 67.2294C512.205 69.1059 512.56 71.5 512.56 74.4118Z" fill="white"/>
<path d="M538.461 23.4559H548.646L562.903 86.5441H556.114L552.816 71.9853H534.291L530.993 86.5441H524.204L538.461 23.4559ZM543.505 31.0265L535.552 66.1618H551.458L543.505 31.0265Z" fill="white"/>
<path d="M590.014 80.7206V86.5441H573.526V80.7206H578.375V29.2794H573.526V23.4559H590.014V29.2794H585.165V80.7206H590.014Z" fill="white"/>
<path d="M605.461 86.5441V23.4559H612.25V80.7206H630V86.5441H605.461Z" fill="white"/>
<path d="M56 48.999C64.9374 46.2027 71.4229 37.8582 71.4229 27.999C71.4229 18.1398 64.9374 9.79535 56 6.99902H88.4228C100.021 6.99902 109.423 16.4011 109.423 27.999C109.423 39.597 100.021 48.999 88.4228 48.999H56Z" fill="white"/>
<path d="M56 102.999C64.9374 100.203 71.4229 91.8582 71.4229 81.999C71.4229 72.1398 64.9374 63.7953 56 60.999H88.4228C100.021 60.999 109.423 70.4011 109.423 81.999C109.423 93.597 100.021 102.999 88.4228 102.999H56Z" fill="white"/>
<path d="M1.00391 102.999C9.94134 100.203 16.4268 91.8582 16.4268 81.999C16.4268 72.1398 9.94134 63.7953 1.00391 60.999H33.4268C45.0247 60.999 54.4268 70.4011 54.4268 81.999C54.4268 93.597 45.0247 102.999 33.4268 102.999H1.00391Z" fill="white"/>
</svg>
