<svg width="110" height="110" viewBox="0 0 110 110" fill="none" xmlns="http://www.w3.org/2000/svg">
<path d="M56 48.999C64.9374 46.2027 71.4229 37.8582 71.4229 27.999C71.4229 18.1398 64.9374 9.79535 56 6.99902H88.4228C100.021 6.99902 109.423 16.4011 109.423 27.999C109.423 39.597 100.021 48.999 88.4228 48.999H56Z" fill="#0B1D1C"/>
<path d="M56 102.999C64.9374 100.203 71.4229 91.8582 71.4229 81.999C71.4229 72.1398 64.9374 63.7953 56 60.999H88.4228C100.021 60.999 109.423 70.4011 109.423 81.999C109.423 93.597 100.021 102.999 88.4228 102.999H56Z" fill="#0B1D1C"/>
<path d="M1.00391 102.999C9.94134 100.203 16.4268 91.8582 16.4268 81.999C16.4268 72.1398 9.94134 63.7953 1.00391 60.999H33.4268C45.0247 60.999 54.4268 70.4011 54.4268 81.999C54.4268 93.597 45.0247 102.999 33.4268 102.999H1.00391Z" fill="#0B1D1C"/>
</svg>
