<svg width="242" height="164" viewBox="0 0 242 164" fill="none" xmlns="http://www.w3.org/2000/svg">
<path d="M183.644 116.57H96.1283C119.9 108.127 136.923 85.4353 136.923 58.7672C136.923 32.099 119.9 9.40765 96.1283 0.964844H183.644C215.567 0.964844 241.446 26.8439 241.446 58.7672C241.446 90.6905 215.567 116.57 183.644 116.57Z" stroke="#B6D3D2" stroke-width="0.75"/>
<path d="M90.0014 163.39H2.48573C26.2574 154.947 43.2804 132.256 43.2804 105.588C43.2804 78.9194 26.2574 56.228 2.48572 47.7852H90.0014C121.925 47.7852 147.804 73.6642 147.804 105.588C147.804 137.511 121.925 163.39 90.0014 163.39Z" stroke="#B6D3D2" stroke-width="0.75"/>
<path d="M47 140.355C71.7598 132.608 89.7267 109.491 89.7267 82.1773C89.7267 54.8639 71.7598 31.7468 47 24H136.823C168.953 24 195 50.0469 195 82.1773C195 114.308 168.953 140.355 136.823 140.355H47Z" fill="#1D4A48"/>
<path d="M81.541 104.557L119.738 124.23V113.082L96.623 102.098L81.541 80.706V104.557Z" fill="#E6B073"/>
<path d="M119.738 94.7213L101.213 91.2787L81.541 80.706L96.623 102.098L119.738 113.082V94.7213Z" fill="#D9A367"/>
<path d="M139.574 97.0164L119.738 94.7213V113.082V124.23L153.836 106.033V92.0984V89.4098L139.574 97.0164Z" fill="#AD7D3F"/>
<path d="M153.836 76.3607L119.738 94.7213L139.574 97.0164L153.836 89.4098L161.541 85.3005L174 78.6557L153.836 76.3607Z" fill="#F3C998"/>
<path d="M116.951 56.1967L153.836 76.3607L167.443 58.1639L130.23 38L116.951 56.1967Z" fill="#F0BD84"/>
<path d="M119.738 94.7213L153.836 76.3607L116.951 56.1967V93.1786L119.738 94.7213Z" fill="#C99758"/>
<path d="M116.951 56.1967L83.0164 74.3934L116.951 93.1786V56.1967Z" fill="#A06F2B"/>
<path d="M83.0164 74.3934L116.951 56.1967L102.197 39.8033L67.9344 58.1639L83.0164 74.3934Z" fill="#E7BC86"/>
<path d="M116.951 93.1786L83.0164 74.3934L64 71.2787L81.541 80.706L101.213 91.2787L119.738 94.7213L116.951 93.1786Z" fill="#E6BB85"/>
<path d="M153.836 106.033L119.738 124.23L139.574 126L174 108.4L153.836 106.033Z" fill="#143230"/>
<path d="M153.836 89.4098V92.0984V106.033L170.557 90.7869L161.541 85.3005L153.836 89.4098Z" fill="#143230"/>
</svg>
