<svg width="242" height="164" viewBox="0 0 242 164" fill="none" xmlns="http://www.w3.org/2000/svg">
<path d="M183.644 116.57H96.1283C119.9 108.127 136.923 85.4353 136.923 58.7672C136.923 32.099 119.9 9.40765 96.1283 0.964844H183.644C215.567 0.964844 241.446 26.8439 241.446 58.7672C241.446 90.6905 215.567 116.57 183.644 116.57Z" stroke="#B6D3D2" stroke-width="0.75"/>
<path d="M90.0014 163.39H2.48573C26.2574 154.947 43.2804 132.256 43.2804 105.588C43.2804 78.9194 26.2574 56.228 2.48572 47.7852H90.0014C121.925 47.7852 147.804 73.6642 147.804 105.588C147.804 137.511 121.925 163.39 90.0014 163.39Z" stroke="#B6D3D2" stroke-width="0.75"/>
<path d="M47 140.355C71.7598 132.608 89.7267 109.491 89.7267 82.1773C89.7267 54.8639 71.7598 31.7468 47 24H136.823C168.953 24 195 50.0469 195 82.1773C195 114.308 168.953 140.355 136.823 140.355H47Z" fill="#1D4A48"/>
<ellipse cx="133.862" cy="87.4515" rx="50.3936" ry="36.8861" fill="#143230"/>
<ellipse cx="125.55" cy="79.9294" rx="54.5498" ry="36.3268" fill="#733C3B"/>
<path d="M180.1 74.8079C180.1 92.0421 155.837 106.013 125.907 106.013C95.9776 106.013 71.7148 92.0421 71.7148 74.8079C75.0498 58.1333 95.9776 43.6025 125.907 43.6025C155.837 43.6025 176.646 58.0142 180.1 74.8079Z" fill="#C95D5C"/>
<ellipse cx="125.429" cy="72.4258" rx="49.4283" ry="28.8233" fill="#DA6F6D"/>
<path d="M158.372 78.3866C157.529 87.6738 143.13 93.8643 124.922 93.8643C106.714 93.8643 92.6758 87.9936 92.6758 78.3866C93.2774 66.113 106.714 58.6094 124.922 58.6094C143.13 58.6094 159.441 66.5894 158.372 78.3866Z" fill="#733C3B"/>
<path d="M158.421 79.5729C157.588 87.0764 143.334 94.58 125.31 94.58C107.287 94.58 92.6758 87.3349 92.6758 79.5729C94.7006 71.712 107.287 65.5186 125.31 65.5186C143.334 65.5186 157.111 72.3075 158.421 79.5729Z" fill="#1D4A48"/>
<path d="M102.085 58.9664C98.7505 52.892 92.0807 51.1055 92.0807 51.1055C92.0807 51.1055 89.2087 52.2958 87.6738 53.2493C86.1389 54.2029 84.3389 55.9887 84.3389 55.9887C84.3389 55.9887 90.7705 58.609 93.3908 63.135C95.5059 66.7884 96.8448 73.378 96.8448 73.378C96.8448 73.378 99.3129 71.6414 100.894 70.7577C102.476 69.8739 104.944 68.852 104.944 68.852C104.944 68.852 104.374 63.135 102.085 58.9664Z" fill="#EEF7F6"/>
<path d="M164.734 93.8636C161.399 87.7893 154.61 85.8836 154.61 85.8836C154.61 85.8836 152.452 87.5504 150.917 88.5039C149.382 89.4574 146.63 90.6478 146.63 90.6478C146.63 90.6478 153.419 93.5063 156.039 98.0323C158.154 101.686 159.493 108.394 159.493 108.394C159.493 108.394 162.232 106.965 163.781 105.893C165.329 104.821 167.592 103.154 167.592 103.154C167.592 103.154 167.022 98.0323 164.734 93.8636Z" fill="#EEF7F6"/>
<path d="M149.609 59.4418C152.944 53.3675 160.09 51.2236 160.09 51.2236C160.09 51.2236 162.724 52.7713 164.259 53.7248C165.794 54.6783 167.832 56.3451 167.832 56.3451C167.832 56.3451 160.924 59.0845 158.304 63.6105C156.189 67.2638 154.85 73.8535 154.85 73.8535C154.85 73.8535 152.382 72.1169 150.8 71.2332C149.219 70.3494 146.751 69.3275 146.751 69.3275C146.751 69.3275 147.32 63.6105 149.609 59.4418Z" fill="#EEF7F6"/>
<path d="M90.297 96.6033C93.632 90.529 99.9445 88.7424 99.9445 88.7424C99.9445 88.7424 103.399 90.1717 104.947 90.8863C106.495 91.6009 109.354 92.5538 109.354 92.5538C109.354 92.5538 101.612 96.246 98.9916 100.772C96.8766 104.425 95.7758 110.419 95.7758 110.419C95.7758 110.419 93.0695 109.278 91.4881 108.395C89.9066 107.511 87.5576 106.013 87.5576 106.013C87.5576 106.013 88.0084 100.772 90.297 96.6033Z" fill="#EEF7F6"/>
</svg>
