<svg width="242" height="164" viewBox="0 0 242 164" fill="none" xmlns="http://www.w3.org/2000/svg">
<path d="M183.644 116.57H96.1283C119.9 108.127 136.923 85.4353 136.923 58.7672C136.923 32.099 119.9 9.40765 96.1283 0.964844H183.644C215.567 0.964844 241.446 26.8439 241.446 58.7672C241.446 90.6905 215.567 116.57 183.644 116.57Z" stroke="#B6D3D2" stroke-width="0.75"/>
<path d="M90.0014 163.39H2.48573C26.2574 154.947 43.2804 132.256 43.2804 105.588C43.2804 78.9194 26.2574 56.228 2.48572 47.7852H90.0014C121.925 47.7852 147.804 73.6642 147.804 105.588C147.804 137.511 121.925 163.39 90.0014 163.39Z" stroke="#B6D3D2" stroke-width="0.75"/>
<path d="M47 140.355C71.7598 132.608 89.7267 109.491 89.7267 82.1773C89.7267 54.8639 71.7598 31.7468 47 24H136.823C168.953 24 195 50.0469 195 82.1773C195 114.308 168.953 140.355 136.823 140.355H47Z" fill="#1D4A48"/>
<path d="M136.595 102.586C136.631 115.311 136.595 127.141 138.121 139.998C138.121 139.998 126.083 146.022 117.006 146.109C108.043 146.194 95.8906 140.594 95.8906 140.594C97.6979 127.626 97.4382 115.508 97.4777 102.586C97.5137 88.5529 97.4706 78.3897 97.4706 78.3897H117.037H136.599C136.599 78.3897 136.552 88.5529 136.595 102.586Z" fill="#D9D9D9"/>
<path d="M130.857 84.9227C123.158 88.5132 110.774 88.5132 103.14 84.9227C95.5667 81.3088 95.5667 75.4589 103.14 71.8684C110.777 68.2368 123.158 68.2368 130.857 71.8684C138.501 75.4589 138.501 81.3088 130.857 84.9227Z" fill="#E0D5AC"/>
<path d="M130.855 108.931C123.157 112.521 110.772 112.521 103.138 108.931C99.3609 107.127 97.4721 104.77 97.465 102.411L97.0879 124.994C97.0879 127.359 99.3537 129.727 103.138 131.508C110.776 135.145 123.157 135.145 130.855 131.508C134.644 129.727 136.974 127.359 136.974 124.994L136.54 103.025C136.227 105.176 134.335 107.286 130.855 108.931Z" fill="#233C3B"/>
<path d="M137.944 74.8805H96.0506V79.7167C96.0506 82.2553 98.0794 84.791 102.137 86.7037C110.32 90.6056 123.599 90.6056 131.843 86.7037C135.912 84.7939 137.944 82.2553 137.944 79.7167V74.8805Z" fill="#233C3B"/>
<path d="M131.841 81.8972C123.596 85.7432 110.318 85.7432 102.134 81.8972C94.0227 78.0188 94.0227 71.7516 102.134 67.8997C110.318 64.0007 123.596 64.0007 131.841 67.8997C140.042 71.7516 140.042 78.0188 131.841 81.8972Z" fill="#305351"/>
<path d="M129.172 80.6322C122.411 83.7849 111.531 83.7849 104.819 80.6322C98.1694 77.4531 98.1694 72.3143 104.819 69.1557C111.531 65.9649 122.407 65.9649 129.172 69.1557C135.905 72.3143 135.905 77.4531 129.172 80.6322Z" fill="#0D2524"/>
<path d="M134.174 45.8143H99.8387V60.088L103.799 74.012C103.799 76.0922 103.343 77.0589 106.676 78.625C113.387 81.8246 120.622 80.7434 127.387 77.5408C130.719 75.9777 131.7 76.0893 131.7 74.012L134.174 60.4817V45.8143Z" fill="#DFE1E1"/>
<path d="M129.175 65.2477C122.414 68.4003 111.534 68.4003 104.823 65.2477C101.544 63.6787 99.8854 61.6367 99.8387 59.5887V74.9084C99.8387 76.9886 101.49 79.0718 104.823 80.632C111.534 83.8346 122.41 83.8346 129.175 80.632C132.507 79.0689 134.174 76.9886 134.174 74.9084V60.0824C133.89 61.9628 132.231 63.808 129.175 65.2477Z" fill="#DFE1E1"/>
<path d="M134.152 45.0961C133.696 37.6714 126.195 31.7627 117.01 31.7627C107.527 31.7627 99.8388 38.0533 99.8388 45.8131C99.8352 47.8933 101.498 49.9735 104.826 51.5601C111.537 54.7157 122.414 54.7157 129.179 51.5601C132.935 49.7913 134.59 47.4085 134.152 45.0961Z" fill="#233C3B"/>
<path d="M119.735 35.0784C118.306 35.7571 115.983 35.7571 114.55 35.0784C113.121 34.4026 113.121 33.3096 114.55 32.6309C115.983 31.9551 118.303 31.9551 119.735 32.6309C121.165 33.3066 121.165 34.3996 119.735 35.0784Z" fill="#0D2524"/>
<path d="M133.939 53.4955C133.939 53.5372 133.938 53.5779 133.936 53.6196C133.933 53.7241 133.905 53.8278 133.892 53.9323C133.875 54.0708 133.866 54.2085 133.834 54.3461C133.829 54.3682 133.83 54.3912 133.825 54.4133C133.8 54.5178 133.75 54.6198 133.716 54.7234C133.672 54.8568 133.633 54.9903 133.575 55.1237C133.565 55.1466 133.561 55.1712 133.55 55.195C133.507 55.2894 133.439 55.3828 133.389 55.4772C133.314 55.6182 133.24 55.7593 133.149 55.8995C133.13 55.9267 133.12 55.9547 133.101 55.9819C133.049 56.0575 132.974 56.1306 132.917 56.2054C132.791 56.3694 132.662 56.5343 132.513 56.6949C132.478 56.734 132.454 56.7739 132.416 56.8121C132.363 56.8665 132.291 56.9175 132.236 56.9719C132.03 57.1733 131.805 57.3721 131.561 57.5659C131.495 57.6194 131.446 57.6755 131.377 57.7273C131.324 57.7673 131.259 57.8038 131.205 57.8437C131.045 57.9619 130.87 58.0749 130.695 58.1896C130.528 58.2975 130.362 58.4054 130.183 58.51C129.994 58.6213 129.791 58.7275 129.589 58.8346C129.457 58.9034 129.341 58.9765 129.204 59.0436C129.073 59.1074 128.939 59.1711 128.803 59.234C128.054 59.5781 127.241 59.8679 126.402 60.133C126.208 60.1942 126.016 60.2554 125.818 60.3123C125.634 60.3641 125.461 60.4296 125.275 60.478C124.949 60.5647 124.594 60.6089 124.26 60.6845C123.706 60.8086 123.158 60.9309 122.585 61.0244C122.419 61.0516 122.264 61.0992 122.096 61.1238C121.437 61.2207 120.768 61.2938 120.093 61.3524C120.049 61.3567 120.007 61.3643 119.965 61.3677C119.953 61.3686 119.942 61.3711 119.932 61.372C119.305 61.4221 118.675 61.4569 118.043 61.4748C117.689 61.485 117.336 61.479 116.982 61.4782C116.858 61.4782 116.735 61.4816 116.61 61.4799C116.511 61.479 116.411 61.4833 116.311 61.4816C115.754 61.4697 115.197 61.445 114.643 61.4076C114.341 61.3881 114.044 61.3541 113.745 61.3252C113.619 61.3133 113.492 61.3048 113.365 61.2912C113.243 61.2776 113.118 61.2717 112.997 61.2572C112.429 61.1918 111.868 61.1119 111.315 61.0184C111.095 60.9811 110.884 60.9301 110.667 60.8884C110.492 60.8553 110.319 60.8204 110.146 60.7839C109.943 60.7414 109.735 60.7083 109.535 60.6607C108.829 60.4967 108.143 60.3072 107.481 60.0931C107.478 60.0922 107.475 60.0905 107.472 60.0897C106.538 59.788 105.652 59.4362 104.834 59.036C101.728 57.5174 100.149 55.5698 100.056 53.6128L100.037 70.5993C100.037 70.6587 100.052 70.7182 100.055 70.7768L100.062 66.2221C100.055 68.2437 101.649 70.2704 104.858 71.839C105.676 72.2393 106.562 72.5911 107.496 72.8927C108.346 73.1681 109.248 73.3924 110.17 73.5861C110.341 73.6227 110.514 73.6567 110.689 73.6907C111.571 73.8589 112.472 73.9974 113.391 74.0943C113.516 74.107 113.642 74.1164 113.768 74.1283C114.715 74.2175 115.674 74.2711 116.635 74.283C116.759 74.2847 116.884 74.2812 117.007 74.2812C118.006 74.2829 119.005 74.2524 119.991 74.1708C120.031 74.1674 120.071 74.1598 120.111 74.1564C120.959 74.0833 121.787 73.9626 122.609 73.8275C123.18 73.734 123.732 73.6108 124.284 73.4867C124.809 73.3686 125.34 73.259 125.842 73.1137C126.039 73.0576 126.232 72.9964 126.425 72.9352C127.263 72.671 128.076 72.3803 128.826 72.0362C129.105 71.9087 129.354 71.7719 129.61 71.6368C129.814 71.5297 130.017 71.4227 130.206 71.3122C130.385 71.2077 130.55 71.0997 130.715 70.9927C130.892 70.878 131.067 70.7624 131.229 70.6451C131.354 70.5551 131.467 70.4607 131.583 70.3681C131.828 70.1744 132.052 69.9755 132.258 69.7733C132.353 69.6815 132.451 69.5897 132.536 69.4971C132.684 69.3365 132.814 69.1716 132.939 69.0076C133.016 68.9057 133.101 68.8054 133.17 68.7017C133.263 68.5632 133.335 68.4213 133.411 68.2803C133.475 68.1621 133.546 68.0457 133.598 67.9259C133.656 67.7942 133.695 67.6599 133.738 67.5273C133.78 67.4016 133.829 67.275 133.857 67.1484C133.888 67.0116 133.898 66.8731 133.915 66.7354C133.926 66.6445 133.934 66.5544 133.944 66.4643L133.962 55.8635C133.962 55.9239 133.949 50.2409 133.943 50.3013L133.939 53.4955Z" fill="#38928D"/>
<path d="M136.595 102.586C136.631 115.311 136.595 127.141 138.121 139.998C138.121 139.998 126.083 146.022 117.006 146.109C108.043 146.194 95.8906 140.594 95.8906 140.594C97.6979 127.626 97.4382 115.508 97.4777 102.586C97.5137 88.5529 97.4706 78.3897 97.4706 78.3897H117.037H136.599C136.599 78.3897 136.552 88.5529 136.595 102.586Z" fill="#D9D9D9"/>
<path d="M130.857 84.9227C123.158 88.5132 110.774 88.5132 103.14 84.9227C95.5667 81.3088 95.5667 75.4589 103.14 71.8684C110.777 68.2368 123.158 68.2368 130.857 71.8684C138.501 75.4589 138.501 81.3088 130.857 84.9227Z" fill="#E0D5AC"/>
<path d="M130.855 108.931C123.157 112.521 110.772 112.521 103.138 108.931C99.3609 107.127 97.4721 104.77 97.465 102.411L97.0879 124.994C97.0879 127.359 99.3537 129.727 103.138 131.508C110.776 135.145 123.157 135.145 130.855 131.508C134.644 129.727 136.974 127.359 136.974 124.994L136.54 103.025C136.227 105.176 134.335 107.286 130.855 108.931Z" fill="#C95D5C"/>
<path d="M137.944 74.8805H96.0506V79.7167C96.0506 82.2553 98.0794 84.791 102.137 86.7037C110.32 90.6056 123.599 90.6056 131.843 86.7037C135.912 84.7939 137.944 82.2553 137.944 79.7167V74.8805Z" fill="#C95D5C"/>
<path d="M131.841 81.8972C123.596 85.7432 110.318 85.7432 102.134 81.8972C94.0227 78.0188 94.0227 71.7516 102.134 67.8997C110.318 64.0007 123.596 64.0007 131.841 67.8997C140.042 71.7516 140.042 78.0188 131.841 81.8972Z" fill="#733C3B"/>
<path d="M129.172 80.6322C122.411 83.7849 111.531 83.7849 104.819 80.6322C98.1694 77.4531 98.1694 72.3143 104.819 69.1557C111.531 65.9649 122.407 65.9649 129.172 69.1557C135.905 72.3143 135.905 77.4531 129.172 80.6322Z" fill="#0D2524"/>
<path d="M134.174 45.8143H99.8387V60.088L103.799 74.012C103.799 76.0922 103.343 77.0589 106.676 78.625C113.387 81.8246 120.622 80.7434 127.387 77.5408C130.719 75.9777 131.7 76.0893 131.7 74.012L134.174 60.4817V45.8143Z" fill="#DFE1E1"/>
<path d="M129.175 65.2477C122.414 68.4003 111.534 68.4003 104.823 65.2477C101.544 63.6787 99.8854 61.6367 99.8387 59.5887V74.9084C99.8387 76.9886 101.49 79.0718 104.823 80.632C111.534 83.8346 122.41 83.8346 129.175 80.632C132.507 79.0689 134.174 76.9886 134.174 74.9084V60.0824C133.89 61.9628 132.231 63.808 129.175 65.2477Z" fill="#DFE1E1"/>
<path d="M134.152 45.0961C133.696 37.6714 126.195 31.7627 117.01 31.7627C107.527 31.7627 99.8388 38.0533 99.8388 45.8131C99.8352 47.8933 101.498 49.9735 104.826 51.5601C111.537 54.7157 122.414 54.7157 129.179 51.5601C132.935 49.7913 134.59 47.4085 134.152 45.0961Z" fill="#233C3B"/>
<path d="M134.152 45.0961C133.696 37.6714 126.195 31.7627 117.01 31.7627C107.527 31.7627 99.8388 38.0533 99.8388 45.8131C99.8352 47.8933 101.498 49.9735 104.826 51.5601C111.537 54.7157 122.414 54.7157 129.179 51.5601C132.935 49.7913 134.59 47.4085 134.152 45.0961Z" fill="#C95D5C"/>
<path d="M119.735 35.0784C118.306 35.7571 115.983 35.7571 114.55 35.0784C113.121 34.4026 113.121 33.3096 114.55 32.6309C115.983 31.9551 118.303 31.9551 119.735 32.6309C121.165 33.3066 121.165 34.3996 119.735 35.0784Z" fill="#0D2524"/>
<path d="M133.939 53.4955C133.939 53.5372 133.938 53.5779 133.936 53.6196C133.933 53.7241 133.905 53.8278 133.892 53.9323C133.875 54.0708 133.866 54.2085 133.834 54.3461C133.829 54.3682 133.83 54.3912 133.825 54.4133C133.8 54.5178 133.75 54.6198 133.716 54.7234C133.672 54.8568 133.633 54.9903 133.575 55.1237C133.565 55.1466 133.561 55.1712 133.55 55.195C133.507 55.2894 133.439 55.3828 133.389 55.4772C133.314 55.6182 133.24 55.7593 133.149 55.8995C133.13 55.9267 133.12 55.9547 133.101 55.9819C133.049 56.0575 132.974 56.1306 132.917 56.2054C132.791 56.3694 132.662 56.5343 132.513 56.6949C132.478 56.734 132.454 56.7739 132.416 56.8121C132.363 56.8665 132.291 56.9175 132.236 56.9719C132.03 57.1733 131.805 57.3721 131.561 57.5659C131.495 57.6194 131.446 57.6755 131.377 57.7273C131.324 57.7673 131.259 57.8038 131.205 57.8437C131.045 57.9619 130.87 58.0749 130.695 58.1896C130.528 58.2975 130.362 58.4054 130.183 58.51C129.994 58.6213 129.791 58.7275 129.589 58.8346C129.457 58.9034 129.341 58.9765 129.204 59.0436C129.073 59.1074 128.939 59.1711 128.803 59.234C128.054 59.5781 127.241 59.8679 126.402 60.133C126.208 60.1942 126.016 60.2554 125.818 60.3123C125.634 60.3641 125.461 60.4296 125.275 60.478C124.949 60.5647 124.594 60.6089 124.26 60.6845C123.706 60.8086 123.158 60.9309 122.585 61.0244C122.419 61.0516 122.264 61.0992 122.096 61.1238C121.437 61.2207 120.768 61.2938 120.093 61.3524C120.049 61.3567 120.007 61.3643 119.965 61.3677C119.953 61.3686 119.942 61.3711 119.932 61.372C119.305 61.4221 118.675 61.4569 118.043 61.4748C117.689 61.485 117.336 61.479 116.982 61.4782C116.858 61.4782 116.735 61.4816 116.61 61.4799C116.511 61.479 116.411 61.4833 116.311 61.4816C115.754 61.4697 115.197 61.445 114.643 61.4076C114.341 61.3881 114.044 61.3541 113.745 61.3252C113.619 61.3133 113.492 61.3048 113.365 61.2912C113.243 61.2776 113.118 61.2717 112.997 61.2572C112.429 61.1918 111.868 61.1119 111.315 61.0184C111.095 60.9811 110.884 60.9301 110.667 60.8884C110.492 60.8553 110.319 60.8204 110.146 60.7839C109.943 60.7414 109.735 60.7083 109.535 60.6607C108.829 60.4967 108.143 60.3072 107.481 60.0931C107.478 60.0922 107.475 60.0905 107.472 60.0897C106.538 59.788 105.652 59.4362 104.834 59.036C101.728 57.5174 100.149 55.5698 100.056 53.6128L100.037 70.5993C100.037 70.6587 100.052 70.7182 100.055 70.7768L100.062 66.2221C100.055 68.2437 101.649 70.2704 104.858 71.839C105.676 72.2393 106.562 72.5911 107.496 72.8927C108.346 73.1681 109.248 73.3924 110.17 73.5861C110.341 73.6227 110.514 73.6567 110.689 73.6907C111.571 73.8589 112.472 73.9974 113.391 74.0943C113.516 74.107 113.642 74.1164 113.768 74.1283C114.715 74.2175 115.674 74.2711 116.635 74.283C116.759 74.2847 116.884 74.2812 117.007 74.2812C118.006 74.2829 119.005 74.2524 119.991 74.1708C120.031 74.1674 120.071 74.1598 120.111 74.1564C120.959 74.0833 121.787 73.9626 122.609 73.8275C123.18 73.734 123.732 73.6108 124.284 73.4867C124.809 73.3686 125.34 73.259 125.842 73.1137C126.039 73.0576 126.232 72.9964 126.425 72.9352C127.263 72.671 128.076 72.3803 128.826 72.0362C129.105 71.9087 129.354 71.7719 129.61 71.6368C129.814 71.5297 130.017 71.4227 130.206 71.3122C130.385 71.2077 130.55 71.0997 130.715 70.9927C130.892 70.878 131.067 70.7624 131.229 70.6451C131.354 70.5551 131.467 70.4607 131.583 70.3681C131.828 70.1744 132.052 69.9755 132.258 69.7733C132.353 69.6815 132.451 69.5897 132.536 69.4971C132.684 69.3365 132.814 69.1716 132.939 69.0076C133.016 68.9057 133.101 68.8054 133.17 68.7017C133.263 68.5632 133.335 68.4213 133.411 68.2803C133.475 68.1621 133.546 68.0457 133.598 67.9259C133.656 67.7942 133.695 67.6599 133.738 67.5273C133.78 67.4016 133.829 67.275 133.857 67.1484C133.888 67.0116 133.898 66.8731 133.915 66.7354C133.926 66.6445 133.934 66.5544 133.944 66.4643L133.962 55.8635C133.962 55.9239 133.949 50.2409 133.943 50.3013L133.939 53.4955Z" fill="#898989"/>
<rect x="108.227" y="59.8125" width="3.50943" height="14.5312" fill="#DFE1E1"/>
<rect x="124.604" y="59.8125" width="3.50943" height="14.5312" fill="#DFE1E1"/>
<path d="M106.815 128.271L102.377 126.148V117.299C102.377 116.139 103.361 115.667 104.575 116.249L104.619 116.27C105.833 116.85 106.817 118.262 106.817 119.422L106.815 128.271Z" fill="#898989"/>
<path d="M129.285 105.021L133.723 102.898V94.049C133.723 92.8894 132.739 92.4175 131.525 92.9992L131.48 93.0204C130.266 93.6002 129.282 95.0121 129.282 96.1717L129.285 105.021Z" fill="#898989"/>
<path d="M117.585 31.7188H139.811L138.057 139.734C138.057 139.734 132.943 142.845 128.698 144.094C124.77 145.249 117.585 146.031 117.585 146.031V31.7188Z" fill="#233C3B" fill-opacity="0.15"/>
<path fill-rule="evenodd" clip-rule="evenodd" d="M117.585 53.8777C121.854 53.831 126.099 53.0428 129.378 51.5132C133.134 49.7445 134.789 47.3616 134.351 45.0493C133.902 37.7261 126.598 31.8778 117.585 31.7191V53.8777Z" fill="#8F3F3E" fill-opacity="0.5"/>
<path d="M115.005 28.3926C115.005 28.3926 115.345 28.6169 117 28.6169C118.655 28.6169 118.995 28.3926 118.995 28.3926V34.4953C118.995 34.4953 118.867 35 117 35C115.133 35 115.005 34.4953 115.005 34.4953V28.3926Z" fill="#898989"/>
<path d="M115.005 28.3926C115.005 28.3926 115.345 28.6169 117 28.6169C118.655 28.6169 118.995 28.3926 118.995 28.3926C118.995 28.3926 119.206 28 117 28C114.794 28 115.005 28.3926 115.005 28.3926Z" fill="#898989"/>
<path d="M118 28C118.552 28 119 28.4477 119 29V34C119 34.5523 118.552 35 118 35V28Z" fill="#1A2D2C" fill-opacity="0.2"/>
<path d="M138 59.5L213 37.4164L213 81.5836L138 59.5Z" fill="#E7BC86" fill-opacity="0.6"/>
<path d="M96 60.5L21 38.4164L21 82.5836L96 60.5Z" fill="#E7BC86" fill-opacity="0.6"/>
</svg>
