<svg width="242" height="140" viewBox="0 0 242 140" fill="none" xmlns="http://www.w3.org/2000/svg">
<path d="M174.475 99.6565H99.7663C120.059 92.4492 134.591 73.0785 134.591 50.313C134.591 27.5475 120.059 8.17681 99.7663 0.969536H174.475C201.726 0.969536 223.818 23.0614 223.818 50.313C223.818 77.5646 201.726 99.6565 174.475 99.6565Z" stroke="#B6D3D2" stroke-width="0.640244"/>
<path d="M94.5382 139.625H19.8298C40.1227 132.418 54.6545 113.047 54.6545 90.2818C54.6545 67.5163 40.1227 48.1456 19.8297 40.9383H94.5382C121.79 40.9383 143.882 63.0301 143.882 90.2818C143.882 117.533 121.79 139.625 94.5382 139.625Z" stroke="#B6D3D2" stroke-width="0.640244"/>
<path d="M57.8291 119.961C78.9655 113.348 94.3031 93.6137 94.3031 70.2974C94.3031 46.9811 78.9655 27.2469 57.8291 20.6338H134.507C161.935 20.6338 184.171 42.869 184.171 70.2974C184.171 97.7258 161.935 119.961 134.507 119.961H57.8291Z" fill="#1D4A48"/>
<path d="M169.353 61.946C169.353 61.9465 169.352 61.947 169.352 61.9475C169.704 62.4749 170.011 63.0103 170.268 63.5526C170.441 63.912 170.593 64.2751 170.721 64.6382C170.862 64.2398 170.979 63.841 171.069 63.4399C171.062 63.4059 171.051 63.3725 171.043 63.3386C170.869 62.592 170.615 61.863 170.267 61.1387C169.992 61.4177 169.686 61.6861 169.353 61.946Z" fill="#E4F3F0"/>
<path d="M161.744 73.7047C160.68 71.7537 157.103 70.3213 152.851 70.3213C147.759 70.3213 143.633 72.3787 143.633 74.9212C143.633 76.0606 144.459 77.103 145.828 77.8946C145.91 77.8899 145.99 77.8825 146.072 77.8769C146.222 77.8672 146.372 77.8574 146.52 77.8453C146.566 77.8421 146.611 77.837 146.656 77.8332C146.824 77.8198 146.992 77.8045 147.16 77.7882C147.235 77.7813 147.309 77.7757 147.383 77.7682C147.503 77.7561 147.623 77.7432 147.742 77.7302C147.794 77.7246 147.846 77.72 147.899 77.7139C148.553 77.6402 149.203 77.5524 149.85 77.4525C150.065 77.4191 150.278 77.3773 150.493 77.3406C150.909 77.2706 151.326 77.1999 151.738 77.1192C151.792 77.1081 151.847 77.1007 151.901 77.0899C152.495 76.9701 153.08 76.8345 153.662 76.6915C154.097 76.5847 154.529 76.4714 154.957 76.3516C155.105 76.3098 155.253 76.2676 155.401 76.2245C155.84 76.0963 156.274 75.9612 156.703 75.8191C156.791 75.7898 156.881 75.7633 156.969 75.7337C157.098 75.6896 157.225 75.6427 157.353 75.5976C158.892 75.0567 160.365 74.4285 161.744 73.7047Z" fill="#F6FFFE"/>
<path d="M122.219 49.545C121.865 49.7531 121.525 49.9545 121.191 50.1705C121.08 50.2398 120.976 50.3171 120.871 50.3864C120.656 50.5243 120.434 50.6716 120.225 50.8164C120.101 50.9074 119.983 51.0059 119.857 51.0945C119.684 51.2194 119.503 51.3517 119.336 51.4831L119.33 51.491C119.205 51.5881 119.086 51.6925 118.961 51.7896C118.808 51.9145 118.649 52.0468 118.495 52.1787C118.377 52.2827 118.267 52.3867 118.149 52.499C118.009 52.622 117.871 52.7478 117.731 52.8792C117.62 52.9911 117.516 53.1026 117.412 53.2131C117.294 53.3389 117.169 53.4629 117.051 53.5887L117.037 53.6022C116.933 53.7145 116.842 53.8329 116.738 53.9499C116.628 54.0749 116.51 54.2071 116.405 54.3394C116.314 54.4569 116.224 54.5754 116.141 54.6933C116.036 54.8252 115.933 54.9574 115.843 55.0898C115.759 55.2138 115.682 55.3331 115.598 55.4575C115.515 55.5894 115.425 55.7216 115.341 55.8549C115.265 55.9779 115.203 56.1037 115.133 56.2296C115.056 56.361 114.981 56.4924 114.91 56.6247C114.841 56.7496 114.793 56.8819 114.73 57.0068C114.668 57.1383 114.599 57.272 114.543 57.4024C114.515 57.4646 114.487 57.5348 114.466 57.6048C114.445 57.6661 114.417 57.7288 114.397 57.7984L114.355 57.8884C114.32 57.9935 114.279 58.0909 114.244 58.1949C114.202 58.3273 114.167 58.4587 114.126 58.59C114.084 58.7223 114.042 58.8551 114.008 58.9865C113.98 59.1253 113.952 59.2572 113.924 59.3905L113.84 59.7856C113.82 59.9249 113.806 60.0563 113.792 60.1951C113.772 60.3279 113.75 60.4592 113.744 60.5916C113.73 60.724 113.73 60.8619 113.722 60.9946C113.716 61.126 113.709 61.2648 113.709 61.3977C113.709 61.5365 113.716 61.6822 113.722 61.8211C113.73 61.946 113.73 62.0708 113.737 62.1966C113.744 62.2598 113.75 62.3224 113.764 62.3902C113.772 62.4674 113.778 62.5426 113.792 62.6196C113.806 62.7449 113.812 62.8632 113.834 62.9882C113.862 63.134 113.889 63.2727 113.924 63.4116C113.931 63.4678 113.945 63.5091 113.952 63.564C113.973 63.4744 113.986 63.3904 114.008 63.3077C114.042 63.1754 114.084 63.0431 114.126 62.9117C114.167 62.7793 114.202 62.6475 114.244 62.5151C114.286 62.3828 114.341 62.244 114.397 62.1126C114.445 61.9886 114.487 61.8563 114.543 61.7235C114.599 61.5921 114.668 61.4598 114.73 61.3284C114.793 61.196 114.841 61.0702 114.91 60.9462C114.981 60.8125 115.056 60.6816 115.133 60.5497C115.203 60.4173 115.265 60.2925 115.341 60.1675C115.425 60.0361 115.515 59.9037 115.598 59.7715C115.652 59.6958 115.702 59.6192 115.753 59.5422C115.783 59.498 115.812 59.4539 115.842 59.4103C115.932 59.2774 116.036 59.1461 116.141 59.0137C116.224 58.8963 116.314 58.7784 116.405 58.66C116.51 58.5286 116.628 58.3953 116.738 58.2635C116.842 58.153 116.933 58.0351 117.037 57.9231L117.051 57.9102C117.162 57.7844 117.287 57.6595 117.412 57.5346C117.516 57.4241 117.62 57.3122 117.731 57.2016C117.871 57.0694 118.009 56.9436 118.149 56.8195C118.267 56.7081 118.377 56.5971 118.495 56.4921C118.648 56.3607 118.808 56.2349 118.961 56.11C119.086 56.006 119.205 55.9019 119.329 55.8045L119.336 55.7981C119.503 55.6652 119.684 55.5409 119.857 55.415C119.983 55.3183 120.101 55.2278 120.225 55.1377C120.434 54.992 120.656 54.8461 120.871 54.699C120.976 54.6297 121.08 54.5616 121.191 54.4914C121.525 54.2759 121.865 54.068 122.219 53.8656C122.833 53.5113 123.471 53.1798 124.123 52.864C131.54 49.2741 141.313 48.1722 150.16 49.5559C150.277 49.5739 150.394 49.5921 150.511 49.6112C150.517 49.6121 150.524 49.6131 150.53 49.6139H150.531C150.704 49.6422 150.877 49.671 151.05 49.7016C151.1 49.7105 151.15 49.7193 151.201 49.728C151.231 49.7332 151.262 49.737 151.293 49.7425C151.356 49.7535 151.418 49.7661 151.481 49.7777C151.602 49.8 151.72 49.8264 151.84 49.8497C152.025 49.8854 152.209 49.9221 152.393 49.9601C152.55 49.9926 152.71 50.0215 152.867 50.0554C152.895 50.0614 152.922 50.0688 152.95 50.0749C153.018 50.0897 153.083 50.1073 153.151 50.1222C153.23 50.1399 153.308 50.1598 153.387 50.1779C153.445 50.1914 153.502 50.2048 153.56 50.2188C153.901 50.2991 154.24 50.3822 154.576 50.47C154.749 50.5155 154.919 50.5629 155.091 50.6103C155.476 50.717 155.858 50.829 156.236 50.9458C156.398 50.996 156.561 51.0443 156.721 51.0963C157.236 51.2635 157.747 51.438 158.247 51.6252C158.312 51.6493 158.375 51.6762 158.439 51.7009C158.88 51.8685 159.314 52.0444 159.741 52.2273C159.898 52.2947 160.052 52.3643 160.207 52.4334C160.551 52.5876 160.891 52.7474 161.226 52.9118C161.376 52.9851 161.527 53.058 161.675 53.1337C162.1 53.3515 162.518 53.5766 162.926 53.8116C162.96 53.831 162.996 53.8487 163.03 53.8682C163.347 54.0521 163.652 54.2401 163.951 54.4301C163.998 54.4606 164.046 54.4909 164.093 54.5215C164.682 54.9013 165.234 55.2938 165.752 55.6967C165.799 55.7329 165.846 55.77 165.893 55.8066C166.148 56.0087 166.395 56.2125 166.633 56.4191C166.637 56.4228 166.64 56.4261 166.644 56.4293C166.872 56.6295 167.091 56.8323 167.303 57.037C167.348 57.0802 167.393 57.1239 167.437 57.1675C167.649 57.3756 167.854 57.5849 168.048 57.7971C168.064 57.8143 168.079 57.8318 168.094 57.8491C168.273 58.0459 168.443 58.2447 168.608 58.4453C168.647 58.4926 168.687 58.5405 168.725 58.5883C168.897 58.8023 169.061 59.0177 169.217 59.2355C169.221 59.242 169.227 59.2486 169.231 59.255C169.241 59.268 169.248 59.2819 169.257 59.295C169.466 59.5916 169.662 59.8902 169.84 60.192C169.851 60.2115 169.861 60.231 169.873 60.25C170.043 60.5429 170.201 60.8387 170.343 61.1363C170.349 61.1499 170.358 61.1632 170.365 61.1767C170.365 61.1767 170.364 61.1767 170.363 61.1767C170.711 61.901 170.965 62.6301 171.139 63.3766C171.175 63.2132 171.207 63.0465 171.233 62.8831C171.268 62.6889 171.296 62.4949 171.31 62.3004C171.455 60.9043 171.296 59.5006 170.836 58.1254C170.225 56.2904 169.086 54.5121 167.405 52.8587C167.161 52.6215 166.912 52.3861 166.655 52.1572C165.613 51.2333 164.382 50.357 162.986 49.5446C151.767 43.0215 133.516 43.0215 122.219 49.545Z" fill="#737373"/>
<path d="M116.705 85.0762C130.898 93.3296 153.991 93.3296 168.281 85.0762C171.448 83.2492 173.915 81.1691 175.684 78.9492C174.712 83.2658 171.36 87.4431 165.617 90.756C151.851 98.7057 129.608 98.7057 115.936 90.756L115.93 90.7532L112.505 92.7442C112.408 93.8423 111.963 94.6236 111.291 95.0141L87.9671 108.568C88.0046 108.546 88.0388 108.519 88.0749 108.493C87.2987 109.019 86.4311 108.257 85.1959 107.544C83.2249 106.405 81.5333 103.882 81.5333 100.219C81.5333 99.4122 81.4737 98.8051 81.3806 98.349C81.089 97.9174 80.7388 97.4706 80.3047 97.0119C80.3047 97.0119 81.0515 96.7351 81.3806 98.349C82.8374 100.505 82.8352 102.282 84.5399 103.267C85.8313 104.012 86.9909 104.035 87.7977 103.479C87.753 103.51 87.7108 103.545 87.664 103.572L111.883 89.4973C112.581 89.0919 113.042 88.2803 113.143 87.14L116.7 85.0729C116.702 85.0739 116.703 85.0752 116.705 85.0762Z" fill="#143230"/>
<path d="M168.28 82.486C154.597 90.3805 132.849 90.7102 118.565 83.4865C118.394 83.916 118.13 84.241 117.791 84.4388L116.699 85.0729C116.701 85.0739 116.702 85.0752 116.704 85.0762C130.897 93.3296 153.99 93.3296 168.28 85.0762C171.447 83.2492 173.914 81.1691 175.684 78.9493C177.933 76.1278 179.056 73.08 179.049 70.0366L179.029 68.041C178.793 73.2798 175.208 78.4827 168.28 82.486Z" fill="#464646"/>
<path d="M178.923 62.3535C178.918 62.4209 178.908 62.4854 178.899 62.5513C178.886 62.6623 178.873 62.7737 178.86 62.8857C178.845 62.9998 178.83 63.1136 178.816 63.2273C178.809 63.2732 178.805 63.3206 178.797 63.3662C178.763 63.5403 178.72 63.72 178.686 63.8951C178.651 64.0538 178.624 64.2215 178.582 64.382C178.573 64.4183 178.561 64.4535 178.551 64.4898C178.514 64.6268 178.474 64.7642 178.436 64.9008C178.4 65.0206 178.364 65.1436 178.327 65.2647C178.314 65.3061 178.304 65.3469 178.29 65.3887C178.228 65.5549 178.159 65.729 178.096 65.8953C178.087 65.9195 178.078 65.9412 178.069 65.965C178.016 66.106 177.968 66.2445 177.907 66.3875C177.856 66.512 177.793 66.6373 177.731 66.7627C177.71 66.8049 177.693 66.8481 177.672 66.8899C177.595 67.0487 177.526 67.2149 177.442 67.3761C177.359 67.5423 177.262 67.7089 177.165 67.8761C177.139 67.9216 177.115 67.9661 177.089 68.0112C177.027 68.1254 176.965 68.2397 176.901 68.3539C176.826 68.4732 176.747 68.5888 176.667 68.7059C176.636 68.7536 176.606 68.801 176.574 68.8483C176.546 68.892 176.515 68.9371 176.487 68.9812C176.416 69.0931 176.348 69.2046 176.268 69.3187C176.15 69.4794 176.025 69.6395 175.901 69.8057C175.85 69.8716 175.802 69.9366 175.754 70.0022C175.736 70.0273 175.716 70.0523 175.697 70.0769C175.697 70.0774 175.697 70.0774 175.697 70.0779C175.651 70.1406 175.604 70.2032 175.552 70.2655C175.519 70.3073 175.483 70.3463 175.449 70.3871C175.345 70.5106 175.24 70.6322 175.136 70.7572C175.037 70.8663 174.945 70.9759 174.85 71.0854C174.818 71.1221 174.787 71.1601 174.754 71.1968C174.601 71.3626 174.441 71.5237 174.282 71.69C174.143 71.8293 174.01 71.9745 173.872 72.1134C173.705 72.2736 173.524 72.4332 173.351 72.5934C173.205 72.7332 173.059 72.8701 172.906 73.0039C172.864 73.0406 172.819 73.0744 172.776 73.1097C172.627 73.2369 172.474 73.3632 172.322 73.4877C172.17 73.6131 172.017 73.7449 171.857 73.8758C171.685 74.0035 171.506 74.1359 171.329 74.2664C171.285 74.2993 171.241 74.3314 171.197 74.3647C171.187 74.3721 171.176 74.3796 171.166 74.387C171.017 74.497 170.874 74.6075 170.718 74.7186C170.679 74.7464 170.637 74.7715 170.598 74.7989C170.383 74.9498 170.163 75.0984 169.94 75.2457C169.833 75.3167 169.726 75.3876 169.619 75.4591C169.579 75.4851 169.543 75.513 169.502 75.5386C169.078 75.8092 168.647 76.0729 168.196 76.3302C153.912 84.5781 130.812 84.5781 116.619 76.3302C116.498 76.2592 116.383 76.1853 116.264 76.1138C115.95 75.9253 115.635 75.7368 115.333 75.5459C115.315 75.5339 115.297 75.52 115.278 75.5074C115.262 75.4973 115.246 75.4856 115.231 75.4749C115.129 75.4054 115.027 75.3347 114.923 75.267C114.691 75.1119 114.467 74.9615 114.244 74.8082C114.207 74.7822 114.168 74.7581 114.132 74.7326C114.106 74.713 114.081 74.6941 114.056 74.6745C113.93 74.5803 113.808 74.4833 113.679 74.3903C113.495 74.2524 113.307 74.1131 113.124 73.9739C113.087 73.9464 113.048 73.9196 113.013 73.8917C112.853 73.7603 112.701 73.6289 112.547 73.5031C112.489 73.4535 112.428 73.4032 112.368 73.3536C112.235 73.2464 112.102 73.1391 111.978 73.0281C111.876 72.9362 111.779 72.8437 111.681 72.7515C111.633 72.7056 111.582 72.661 111.533 72.6149C111.463 72.5498 111.398 72.4877 111.329 72.424C111.294 72.3925 111.26 72.3605 111.226 72.3289C111.16 72.2672 111.089 72.2049 111.026 72.1422C110.887 72.002 110.755 71.8562 110.623 71.7174C110.463 71.5577 110.304 71.3976 110.158 71.2322C110.108 71.1774 110.064 71.1226 110.017 71.0679C109.939 70.9787 109.861 70.8901 109.783 70.7991C109.721 70.7244 109.658 70.6523 109.596 70.5799C109.518 70.4902 109.442 70.4002 109.372 70.3075C109.337 70.2643 109.305 70.2216 109.272 70.1788C109.232 70.1263 109.19 70.0738 109.152 70.0204C109.112 69.9657 109.072 69.9113 109.031 69.8561C108.906 69.689 108.781 69.5297 108.663 69.3621C108.637 69.324 108.614 69.2841 108.589 69.246C108.513 69.1317 108.438 69.0176 108.365 68.9025C108.253 68.7363 108.143 68.5765 108.045 68.4099C107.948 68.25 107.872 68.0903 107.781 67.9372C107.715 67.8151 107.646 67.6925 107.578 67.5699C107.553 67.5263 107.528 67.4832 107.504 67.4386C107.426 67.2788 107.358 67.1186 107.281 66.9589C107.259 66.9116 107.238 66.8618 107.215 66.814C107.159 66.6951 107.101 66.5753 107.052 66.4565C106.994 66.3181 106.946 66.1835 106.896 66.0461C106.886 66.0181 106.875 65.9926 106.865 65.9648C106.802 65.7985 106.74 65.6318 106.676 65.4646C106.628 65.298 106.586 65.1392 106.538 64.9725C106.489 64.8054 106.433 64.6322 106.392 64.4646C106.35 64.2984 106.322 64.1386 106.288 63.972C106.278 63.9241 106.269 63.8735 106.258 63.8247C106.232 63.704 106.203 63.5819 106.183 63.4621C106.166 63.3576 106.156 63.2536 106.144 63.1496C106.137 63.0875 106.129 63.0271 106.121 62.965C106.1 62.7908 106.079 62.6232 106.065 62.45C106.051 62.2829 106.045 62.1237 106.037 61.9565C106.051 65.7368 106.079 59.6229 106.1 67.6465C106.109 71.0856 107.57 74.5228 110.466 77.628L112.98 76.1669C113.598 75.8075 114.453 75.8577 115.395 76.4032C117.269 77.484 118.786 80.1059 118.78 82.2617C118.778 82.7362 118.7 83.1444 118.563 83.4875C132.847 90.7112 154.595 90.3815 168.278 82.4869C175.206 78.4837 178.791 73.2807 179.027 68.042L178.97 61.2832L178.964 61.3379C178.964 61.5125 178.949 61.6927 178.942 61.8663C178.937 62.0327 178.937 62.1925 178.923 62.3535Z" fill="#676767"/>
<path d="M145.404 40.3301C136.525 39.9378 127.438 41.4208 120.056 44.7787C119.869 44.8637 119.679 44.9458 119.494 45.0331C118.563 45.4743 117.658 45.9449 116.787 46.4474C113.722 48.2187 111.324 50.2277 109.57 52.3682C109.569 52.3687 109.569 52.3691 109.569 52.3696C107.092 55.3927 105.909 58.6809 106.039 61.9542C106.047 62.1214 106.053 62.2881 106.067 62.4468C106.081 62.6209 106.102 62.7941 106.123 62.9608C106.13 63.0234 106.139 63.0857 106.146 63.1483C106.157 63.2524 106.168 63.3564 106.185 63.4608C106.205 63.5806 106.233 63.7027 106.26 63.8234C106.271 63.8722 106.28 63.9209 106.29 63.9688C106.324 64.1355 106.351 64.3027 106.394 64.4614C106.435 64.6356 106.491 64.8022 106.54 64.9694C106.588 65.1361 106.63 65.3037 106.678 65.4625C106.741 65.6296 106.803 65.7964 106.867 65.9626C106.877 65.9904 106.888 66.0168 106.897 66.0447C106.948 66.1821 106.996 66.3168 107.053 66.4552C107.103 66.574 107.161 66.6938 107.217 66.8127C107.24 66.8605 107.261 66.9083 107.283 66.9557C107.36 67.1154 107.428 67.2755 107.506 67.4353C107.53 67.4799 107.555 67.5241 107.579 67.5685C107.648 67.6911 107.716 67.8137 107.783 67.9357C107.873 68.0889 107.949 68.2486 108.047 68.4084C108.145 68.5751 108.255 68.7348 108.366 68.901C108.439 69.0162 108.515 69.1303 108.59 69.2446C108.616 69.2826 108.639 69.3207 108.665 69.3588C108.783 69.5264 108.908 69.6931 109.033 69.8528C109.074 69.9085 109.114 69.9638 109.154 70.019C109.192 70.0725 109.233 70.1249 109.274 70.1774C109.307 70.2201 109.338 70.2632 109.374 70.3051C109.444 70.3979 109.52 70.488 109.597 70.5785C109.66 70.6509 109.722 70.723 109.785 70.7977C109.863 70.8887 109.941 70.9774 110.019 71.0665C110.065 71.1203 110.11 71.176 110.159 71.228C110.306 71.3952 110.465 71.5554 110.625 71.7142C110.756 71.8609 110.889 71.9997 111.028 72.139C111.091 72.2027 111.159 72.2648 111.228 72.3275C111.262 72.3591 111.296 72.3911 111.33 72.4226C111.399 72.4853 111.468 72.5476 111.535 72.6116C111.583 72.6575 111.634 72.7036 111.683 72.75C111.781 72.8423 111.877 72.9347 111.98 73.0266C112.104 73.1376 112.237 73.2449 112.37 73.3521C112.43 73.4009 112.491 73.4492 112.549 73.4988C112.702 73.6256 112.855 73.757 113.014 73.8894C113.05 73.9172 113.089 73.945 113.125 73.9725C113.309 74.1117 113.496 74.251 113.681 74.3889C113.809 74.4818 113.932 74.5788 114.058 74.6731C114.083 74.6922 114.107 74.7116 114.133 74.7302C114.17 74.7557 114.209 74.7807 114.246 74.8068C114.469 74.96 114.693 75.1105 114.925 75.2656C115.029 75.3333 115.13 75.404 115.232 75.4735C115.249 75.4842 115.264 75.495 115.281 75.506C115.299 75.5181 115.317 75.5307 115.335 75.5427C115.637 75.7345 115.952 75.9229 116.267 76.1115C116.386 76.183 116.5 76.2565 116.62 76.327C130.813 84.5749 153.913 84.5749 168.198 76.327C168.649 76.0708 169.08 75.807 169.503 75.5354C169.544 75.5098 169.581 75.4838 169.62 75.4578C169.728 75.3863 169.835 75.3153 169.942 75.2443C170.165 75.0971 170.385 74.9485 170.6 74.7976C170.639 74.7702 170.681 74.7441 170.719 74.7163C170.886 74.5979 171.038 74.48 171.199 74.3624C171.243 74.3304 171.286 74.2974 171.331 74.265C171.508 74.1346 171.686 74.0022 171.859 73.8745C172.018 73.7436 172.171 73.6117 172.324 73.4863C172.475 73.3619 172.628 73.2356 172.778 73.1084C172.821 73.0722 172.866 73.0374 172.908 73.0007C173.061 72.8688 173.207 72.73 173.352 72.5906C173.526 72.4309 173.707 72.2703 173.874 72.1101C174.012 71.9722 174.145 71.8264 174.283 71.6876C174.443 71.5199 174.603 71.3602 174.756 71.1936C174.789 71.1572 174.82 71.1205 174.851 71.084C174.946 70.9745 175.039 70.8648 175.137 70.7557C175.242 70.6308 175.347 70.5092 175.45 70.3857C175.484 70.3443 175.521 70.304 175.554 70.2622C175.606 70.2 175.653 70.1372 175.699 70.0745C175.699 70.0745 175.7 70.0746 175.7 70.0741C175.718 70.0495 175.737 70.0253 175.755 70.0007C175.804 69.9351 175.851 69.8702 175.902 69.8042C176.026 69.638 176.151 69.4778 176.27 69.3172C176.349 69.203 176.418 69.0915 176.488 68.9797C176.517 68.9351 176.548 68.8886 176.576 68.845C176.608 68.7976 176.637 68.7512 176.669 68.7043C176.748 68.5873 176.828 68.4717 176.903 68.3524C176.967 68.2382 177.028 68.124 177.091 68.0097C177.116 67.9641 177.14 67.9187 177.166 67.8727C177.263 67.7055 177.361 67.5388 177.444 67.3722C177.528 67.2124 177.597 67.0527 177.673 66.8865C177.694 66.8447 177.711 66.8029 177.732 66.7611C177.794 66.6358 177.858 66.5104 177.909 66.3859C177.969 66.2429 178.018 66.1045 178.071 65.9634C178.08 65.9396 178.088 65.9165 178.098 65.8927C178.16 65.7256 178.229 65.5515 178.292 65.3848C178.306 65.3449 178.316 65.304 178.328 65.2632C178.366 65.1421 178.402 65.0189 178.438 64.8992C178.476 64.7627 178.516 64.6253 178.553 64.4883C178.562 64.4515 178.574 64.4153 178.583 64.3787C178.626 64.219 178.653 64.0514 178.687 63.8917C178.722 63.7186 178.765 63.5444 178.799 63.3628C178.807 63.3173 178.811 63.2713 178.817 63.2258C178.832 63.1121 178.847 62.9983 178.862 62.8841C178.875 62.7722 178.888 62.6608 178.901 62.5497C178.909 62.4829 178.919 62.417 178.925 62.3492C178.938 62.19 178.938 62.0294 178.945 61.8627C178.951 61.69 178.966 61.5089 178.966 61.3362V61.321C178.966 55.9308 175.437 50.5524 168.371 46.447C164.845 44.3985 160.77 42.8608 156.416 41.83C152.881 40.9928 149.161 40.496 145.404 40.3301ZM166.705 47.407C173.316 51.2491 176.619 56.2817 176.619 61.3259V61.3385C176.619 61.5019 176.605 61.6704 176.599 61.8329C176.592 61.989 176.592 62.1384 176.579 62.288C176.566 62.4565 176.541 62.6199 176.52 62.7894C176.501 62.9375 176.488 63.088 176.462 63.2374C176.43 63.406 176.391 63.5693 176.359 63.7314C176.326 63.881 176.3 64.037 176.261 64.1865C176.222 64.348 176.17 64.5115 176.124 64.6735C176.079 64.8235 176.04 64.979 175.988 65.1289C175.929 65.2855 175.864 65.447 175.806 65.6021C175.747 65.7589 175.695 65.9095 175.63 66.0654C175.565 66.2219 175.487 66.377 175.409 66.5329C175.338 66.689 175.272 66.8385 175.195 66.9879C175.117 67.1449 175.026 67.2999 174.935 67.4569C174.85 67.6064 174.772 67.7559 174.688 67.9054C174.59 68.0605 174.486 68.2109 174.383 68.367C174.291 68.5095 174.2 68.659 174.096 68.8085C173.985 68.958 173.869 69.1084 173.751 69.2635C173.641 69.406 173.544 69.5491 173.427 69.693C173.303 69.848 173.167 69.9985 173.037 70.1545C172.914 70.2906 172.802 70.4275 172.679 70.564C172.536 70.7201 172.387 70.8695 172.237 71.0256C172.107 71.156 171.983 71.2911 171.853 71.4211C171.697 71.5725 171.528 71.7206 171.365 71.8702C171.229 72.0005 171.094 72.131 170.95 72.254C170.774 72.4101 170.585 72.5596 170.404 72.7092C170.261 72.8261 170.118 72.9488 169.968 73.0722C169.767 73.2226 169.558 73.3796 169.351 73.5281C169.201 73.6386 169.057 73.7496 168.903 73.8592C168.668 74.0286 168.42 74.1911 168.174 74.3528C168.037 74.4447 167.907 74.5357 167.764 74.6262C167.368 74.8797 166.965 75.1277 166.541 75.3677C153.177 83.085 131.56 83.085 118.278 75.3677C117.869 75.1276 117.467 74.8797 117.076 74.6341C116.947 74.5487 116.823 74.4581 116.693 74.3737C116.439 74.2047 116.192 74.0418 115.951 73.8727C115.809 73.7696 115.672 73.6577 115.53 73.5537C115.321 73.3986 115.106 73.2426 114.905 73.0857C114.756 72.9627 114.612 72.8387 114.469 72.7212C114.294 72.5731 114.105 72.4292 113.936 72.2797C113.793 72.1502 113.656 72.0205 113.52 71.8901C113.364 71.7397 113.195 71.5967 113.046 71.4481C112.916 71.3181 112.792 71.188 112.668 71.0511C112.519 70.9016 112.369 70.752 112.233 70.5961C112.11 70.4666 111.999 70.3305 111.882 70.1931C111.752 70.038 111.615 69.8867 111.498 69.7316C111.381 69.5955 111.284 69.4516 111.179 69.3086C111.063 69.1597 110.945 69.0031 110.835 68.8471C110.737 68.7046 110.647 68.5616 110.555 68.419C110.452 68.2622 110.348 68.1126 110.257 67.9575C110.166 67.8081 110.093 67.6584 110.01 67.5146C109.925 67.3585 109.834 67.2026 109.749 67.0476C109.678 66.8961 109.612 66.7477 109.542 66.598C109.47 66.443 109.392 66.2861 109.327 66.1301C109.261 65.974 109.21 65.8246 109.151 65.6686C109.092 65.5125 109.035 65.3566 108.976 65.2001C108.93 65.0501 108.892 64.8946 108.846 64.7386C108.8 64.5825 108.748 64.4266 108.709 64.2636C108.671 64.1145 108.644 63.9581 108.611 63.803C108.58 63.6461 108.54 63.4844 108.514 63.3285C108.488 63.1717 108.475 63.0165 108.456 62.8605C108.436 62.7045 108.416 62.5415 108.404 62.3786C108.39 62.2295 108.384 62.0731 108.378 61.9179C108.169 56.6839 111.518 51.4061 118.435 47.407C131.808 39.6899 153.423 39.6899 166.705 47.407Z" fill="#919191"/>
<path d="M118.438 47.407C111.52 51.406 108.172 56.6839 108.38 61.9179C108.387 62.073 108.393 62.2294 108.406 62.3785C108.419 62.5415 108.438 62.7045 108.458 62.8605C108.477 63.0165 108.49 63.1716 108.517 63.3285C108.542 63.4845 108.582 63.646 108.614 63.803C108.647 63.958 108.673 64.1145 108.711 64.2636C108.75 64.4265 108.802 64.5825 108.848 64.7385C108.894 64.8945 108.932 65.0501 108.979 65.2001C109.037 65.3565 109.095 65.5124 109.154 65.6685C109.212 65.8246 109.263 65.974 109.329 66.1301C109.394 66.2861 109.472 66.4429 109.544 66.598C109.615 66.7475 109.68 66.8961 109.751 67.0475C109.836 67.2026 109.927 67.3586 110.012 67.5146C110.096 67.6585 110.168 67.808 110.259 67.9574C110.35 68.1126 110.454 68.262 110.557 68.419C110.65 68.5615 110.739 68.7046 110.838 68.8471C110.948 69.0031 111.065 69.1595 111.182 69.3086C111.286 69.4516 111.383 69.5955 111.5 69.7315C111.618 69.8867 111.755 70.038 111.884 70.193C112.001 70.3305 112.112 70.4666 112.235 70.5961C112.372 70.7521 112.521 70.9015 112.67 71.051C112.794 71.1881 112.918 71.3181 113.049 71.448C113.197 71.5966 113.366 71.7397 113.522 71.89C113.658 72.0205 113.795 72.1501 113.938 72.2796C114.107 72.4291 114.296 72.5731 114.471 72.7211C114.614 72.8386 114.758 72.9626 114.907 73.0857C115.108 73.2425 115.323 73.3985 115.532 73.5537C115.674 73.6576 115.811 73.7695 115.953 73.8726C116.194 74.0416 116.441 74.2046 116.695 74.3736C116.825 74.4582 116.949 74.5487 117.078 74.6341C117.469 74.8797 117.872 75.1276 118.281 75.3677C131.562 83.0849 153.179 83.0849 166.544 75.3677C166.967 75.1275 167.37 74.8797 167.766 74.6262C167.91 74.5356 168.04 74.4446 168.176 74.3528C168.423 74.1911 168.671 74.0286 168.905 73.8591C169.06 73.7496 169.203 73.6387 169.353 73.528C169.561 73.3795 169.769 73.2225 169.97 73.0721C170.12 72.9486 170.263 72.8261 170.406 72.7091C170.587 72.5596 170.777 72.4101 170.952 72.254C171.096 72.131 171.232 72.0005 171.368 71.8701C171.531 71.7206 171.7 71.5725 171.856 71.4211C171.985 71.2911 172.11 71.156 172.239 71.0256C172.389 70.8695 172.538 70.7201 172.681 70.564C172.805 70.4275 172.916 70.2905 173.039 70.1545C173.169 69.9985 173.305 69.848 173.43 69.6929C173.546 69.549 173.643 69.406 173.754 69.2634C173.871 69.1084 173.988 68.958 174.099 68.8085C174.202 68.659 174.293 68.5094 174.385 68.3669C174.489 68.2108 174.592 68.0605 174.69 67.9053C174.774 67.7559 174.852 67.6064 174.937 67.4568C175.028 67.3 175.119 67.1449 175.197 66.9879C175.275 66.8384 175.34 66.6888 175.412 66.5329C175.489 66.3769 175.568 66.2218 175.633 66.0654C175.697 65.9094 175.749 65.7589 175.808 65.602C175.867 65.447 175.931 65.2854 175.991 65.1289C176.042 64.979 176.082 64.8234 176.126 64.6734C176.173 64.5114 176.224 64.348 176.263 64.1865C176.302 64.0369 176.329 63.8809 176.361 63.7314C176.394 63.5694 176.432 63.406 176.465 63.2374C176.491 63.0879 176.504 62.9375 176.523 62.7894C176.543 62.6199 176.569 62.4565 176.581 62.2879C176.595 62.1384 176.595 61.9889 176.601 61.8329C176.608 61.6704 176.622 61.5018 176.622 61.3384V61.3259C176.622 56.2817 173.318 51.2491 166.707 47.407C153.426 39.6899 131.81 39.6899 118.438 47.407ZM115.754 67.6925C115.698 67.602 115.635 67.5118 115.58 67.4208C115.635 67.5118 115.698 67.6019 115.761 67.6925C115.803 67.7551 115.851 67.8183 115.893 67.8786C115.844 67.8183 115.803 67.7551 115.754 67.6925ZM162.946 49.5805C164.343 50.3929 165.573 51.2692 166.615 52.1931C166.872 52.422 167.122 52.6574 167.366 52.8946C169.047 54.548 170.186 56.3263 170.797 58.1613C171.256 59.5365 171.415 60.9401 171.27 62.3363C171.256 62.5308 171.228 62.7249 171.194 62.919C171.168 63.0824 171.136 63.2491 171.1 63.4125C171.108 63.4464 171.118 63.4798 171.125 63.5138C171.035 63.915 170.919 64.3139 170.778 64.7121C169.675 67.822 167.04 70.7894 162.858 73.2034C162.508 73.4053 162.161 73.5985 161.801 73.7791H161.801C161.801 73.7791 161.801 73.7791 161.801 73.78C161.347 74.0178 160.88 74.2425 160.407 74.4607C160.276 74.5211 160.144 74.5796 160.012 74.6381C159.644 74.8015 159.272 74.9593 158.895 75.1108C158.767 75.1627 158.641 75.2157 158.512 75.2658C158.148 75.407 157.781 75.5415 157.409 75.6721C157.281 75.7172 157.154 75.764 157.025 75.8082C156.938 75.8379 156.848 75.8644 156.76 75.8935C156.33 76.0356 155.896 76.1708 155.457 76.299C155.31 76.342 155.162 76.3843 155.013 76.4261C154.585 76.546 154.154 76.6592 153.718 76.7659C153.702 76.7701 153.687 76.7738 153.671 76.7775C153.584 76.799 153.497 76.8226 153.409 76.8435C152.929 76.9577 152.446 77.0658 151.958 77.1643C151.904 77.1749 151.848 77.1825 151.795 77.1935C151.383 77.2748 150.966 77.3449 150.549 77.415C150.334 77.4517 150.122 77.4934 149.906 77.5269C149.26 77.6268 148.61 77.7155 147.955 77.7892C147.903 77.7949 147.851 77.7994 147.798 77.8046C147.679 77.8176 147.56 77.8305 147.44 77.8426C147.366 77.85 147.291 77.8557 147.217 77.8625C147.049 77.8788 146.881 77.8937 146.713 77.9076C146.667 77.9113 146.622 77.9165 146.577 77.9197C146.428 77.9318 146.278 77.9415 146.128 77.9512C146.047 77.9569 145.967 77.9652 145.885 77.9698C137.401 78.5613 128.572 76.9702 122.09 73.2033C121.043 72.5932 120.091 71.946 119.235 71.2717C119.11 71.1761 118.992 71.0702 118.872 70.9672C118.721 70.8414 118.561 70.7155 118.416 70.5897C118.297 70.4875 118.184 70.3747 118.076 70.2725C117.934 70.1403 117.796 70.0153 117.664 69.8894C117.555 69.7771 117.449 69.6676 117.345 69.5556C117.22 69.4307 117.095 69.2974 116.976 69.1734C116.873 69.063 116.784 68.9446 116.684 68.8323C116.575 68.7009 116.463 68.5685 116.353 68.4367C116.26 68.3253 116.186 68.2091 116.095 68.0964C115.995 67.965 115.893 67.8266 115.797 67.6952C115.72 67.5749 115.642 67.457 115.565 67.3414C115.481 67.21 115.392 67.0739 115.308 66.936C115.241 66.8177 115.176 66.7002 115.109 66.5823C115.032 66.4439 114.955 66.3125 114.887 66.171C114.823 66.0553 114.768 65.9303 114.713 65.8111C114.65 65.6732 114.579 65.5349 114.524 65.3942C114.476 65.2776 114.435 65.1523 114.386 65.0339C114.357 64.9629 114.328 64.8919 114.299 64.8171C114.276 64.7475 114.251 64.6764 114.231 64.6091C114.19 64.4902 114.158 64.3639 114.122 64.2488C114.081 64.1021 114.039 63.9642 114.004 63.8249C113.983 63.7539 113.968 63.6768 113.955 63.6094C113.974 63.5198 113.99 63.4298 114.01 63.3462C114.045 63.2143 114.087 63.0787 114.128 62.9473C114.17 62.8159 114.206 62.6831 114.248 62.553C114.29 62.4203 114.345 62.2824 114.398 62.151C114.447 62.0252 114.488 61.8928 114.547 61.7609C114.601 61.6304 114.669 61.4981 114.733 61.3659C114.798 61.2317 114.842 61.1087 114.913 60.9828C114.984 60.8523 115.061 60.7209 115.135 60.5853C115.205 60.4529 115.267 60.3318 115.344 60.206C115.427 60.0709 115.517 59.9395 115.6 59.8071C115.633 59.7626 115.664 59.7152 115.695 59.6688L115.714 59.5778C115.663 59.6549 115.613 59.7314 115.559 59.8071C115.476 59.9395 115.386 60.0717 115.302 60.2032C115.226 60.3281 115.164 60.4529 115.094 60.5853C115.017 60.7172 114.942 60.8481 114.871 60.9818C114.802 61.1058 114.754 61.2316 114.691 61.364C114.629 61.4953 114.56 61.6277 114.504 61.7591C114.448 61.8919 114.406 62.0242 114.358 62.1482C114.302 62.2796 114.246 62.4185 114.205 62.5507C114.163 62.6831 114.128 62.8149 114.087 62.9473C114.045 63.0787 114.003 63.2111 113.969 63.3433C113.947 63.426 113.934 63.51 113.913 63.5996C113.906 63.5448 113.892 63.5034 113.885 63.4472C113.85 63.3084 113.823 63.1696 113.795 63.0238C113.773 62.8989 113.767 62.7805 113.753 62.6552C113.739 62.5781 113.733 62.5029 113.725 62.4258C113.711 62.3581 113.705 62.2954 113.698 62.2323C113.691 62.1065 113.691 61.9815 113.683 61.8567C113.677 61.7178 113.67 61.5721 113.67 61.4333C113.67 61.3005 113.677 61.1616 113.683 61.0303C113.691 60.8974 113.691 60.7595 113.705 60.6272C113.711 60.4949 113.733 60.3634 113.753 60.2307C113.767 60.0919 113.781 59.9605 113.801 59.8212L113.885 59.4261C113.913 59.2929 113.941 59.161 113.969 59.0221C114.003 58.8907 114.045 58.7579 114.087 58.6257C114.128 58.4942 114.163 58.3628 114.205 58.2306C114.24 58.1265 114.281 58.0291 114.316 57.9241L114.358 57.834C114.378 57.7643 114.406 57.7016 114.427 57.6405C114.448 57.5704 114.476 57.5002 114.504 57.4381C114.56 57.3076 114.629 57.1739 114.691 57.0425C114.754 56.9175 114.802 56.7853 114.871 56.6603C114.942 56.5279 115.017 56.3965 115.094 56.2652C115.164 56.1394 115.226 56.0135 115.302 55.8905C115.386 55.7574 115.476 55.625 115.559 55.4931C115.643 55.3686 115.72 55.2493 115.803 55.1254C115.894 54.9931 115.997 54.8608 116.102 54.7289C116.185 54.611 116.275 54.4927 116.366 54.3751C116.471 54.2427 116.589 54.1105 116.699 53.9856C116.803 53.8684 116.894 53.7501 116.998 53.6378L117.012 53.6243C117.13 53.4985 117.255 53.3745 117.373 53.2487C117.477 53.1383 117.581 53.0268 117.692 52.9149C117.832 52.7835 117.97 52.6577 118.11 52.5346C118.228 52.4223 118.338 52.3182 118.456 52.2143C118.609 52.0824 118.769 51.9502 118.922 51.8252C119.047 51.7281 119.166 51.6238 119.29 51.5267L119.297 51.5187C119.464 51.3873 119.645 51.255 119.818 51.1301C119.944 51.0415 120.062 50.943 120.186 50.852C120.395 50.7072 120.617 50.56 120.832 50.422C120.937 50.3528 121.041 50.2754 121.152 50.2061C121.486 49.9901 121.826 49.7887 122.18 49.5806C133.476 43.057 151.728 43.057 162.946 49.5805Z" fill="#AEAEAE"/>
<path d="M114.545 64.1741C114.599 64.0427 114.667 63.9103 114.731 63.7799C114.796 63.6443 114.84 63.5226 114.912 63.3964C114.982 63.2646 115.059 63.1327 115.133 62.9975C115.204 62.8671 115.265 62.7413 115.342 62.6183C115.425 62.4841 115.515 62.3527 115.599 62.2189C115.682 62.1048 115.76 61.9798 115.844 61.8605C115.933 61.7282 116.036 61.5967 116.142 61.4654C116.225 61.3461 116.315 61.2273 116.406 61.108C116.509 60.9775 116.627 60.8446 116.739 60.7132C116.842 60.6046 116.933 60.4843 117.039 60.372L117.051 60.3599C117.164 60.2345 117.286 60.1091 117.411 59.9833C117.517 59.8742 117.62 59.7619 117.733 59.6523C117.871 59.5176 118.009 59.395 118.15 59.2711C118.266 59.1574 118.379 59.0486 118.498 58.9419C118.649 58.8114 118.81 58.6847 118.96 58.5598C119.086 58.4566 119.205 58.3504 119.33 58.2542L119.337 58.2482C119.504 58.1159 119.683 57.9911 119.857 57.8657C119.983 57.7691 120.102 57.679 120.227 57.5893C120.435 57.4417 120.658 57.2969 120.873 57.1496C120.976 57.0814 121.082 57.0113 121.191 56.9421C121.526 56.7239 121.866 56.5195 122.22 56.3171C127.961 52.9996 135.496 51.3765 142.991 51.4368C142.996 51.4341 143.001 51.4312 143.006 51.4289C144.739 50.5645 146.844 49.8841 149.191 49.4571C140.61 48.2861 131.284 49.4417 124.139 52.8989C123.482 53.217 122.837 53.5466 122.22 53.9032C121.866 54.1057 121.525 54.3108 121.191 54.5291C121.082 54.5964 120.976 54.6674 120.873 54.7347C120.658 54.8819 120.435 55.0277 120.227 55.1753C120.102 55.2654 119.983 55.355 119.857 55.4516C119.683 55.5774 119.503 55.7023 119.337 55.8347L119.33 55.8403C119.205 55.9368 119.086 56.0437 118.96 56.1457C118.81 56.2707 118.649 56.3965 118.498 56.5288C118.379 56.6347 118.266 56.7438 118.15 56.8562C118.009 56.982 117.871 57.1033 117.732 57.2383C117.62 57.3479 117.517 57.4608 117.411 57.5704C117.286 57.6953 117.164 57.8201 117.051 57.9459L117.038 57.9579C116.933 58.0717 116.842 58.1906 116.739 58.2992C116.626 58.4311 116.509 58.5634 116.406 58.6985C116.315 58.8141 116.225 58.9325 116.142 59.0513C116.036 59.1837 115.933 59.3141 115.844 59.4478C115.792 59.5203 115.743 59.5941 115.693 59.668C115.662 59.7144 115.631 59.7618 115.599 59.8063C115.515 59.9386 115.425 60.0701 115.342 60.2052C115.265 60.331 115.203 60.4522 115.133 60.5845C115.059 60.7201 114.982 60.8515 114.911 60.982C114.84 61.1078 114.796 61.2308 114.731 61.3651C114.667 61.4973 114.599 61.6296 114.545 61.7601C114.487 61.892 114.445 62.0243 114.396 62.1501C114.343 62.2816 114.288 62.4195 114.246 62.5522C114.204 62.6822 114.168 62.815 114.126 62.9465C114.085 63.0779 114.043 63.2135 114.008 63.3454C113.988 63.429 113.972 63.5189 113.953 63.6086C113.966 63.676 113.981 63.7531 114.002 63.8241C114.037 63.9634 114.079 64.1013 114.12 64.248C114.156 64.3631 114.189 64.4894 114.229 64.6083C114.249 64.6756 114.274 64.7466 114.297 64.8163C114.329 64.7313 114.362 64.6474 114.396 64.5638C114.445 64.4393 114.487 64.3055 114.545 64.1741Z" fill="#E4F3F0"/>
<path d="M170.32 63.6271C170.064 63.0848 169.757 62.5493 169.404 62.0219C166.377 64.382 161.084 65.9439 155.052 65.9439C145.645 65.9439 138.017 62.1371 138.017 57.4411C138.017 55.0977 139.917 52.9741 142.989 51.4381C135.494 51.3778 127.959 53.0009 122.218 56.3184C121.864 56.5208 121.524 56.7252 121.189 56.9434C121.08 57.0127 120.974 57.0827 120.871 57.1509C120.656 57.2982 120.434 57.443 120.225 57.5906C120.1 57.6802 119.981 57.7704 119.856 57.867C119.681 57.9923 119.502 58.1173 119.335 58.2495L119.329 58.2555C119.203 58.3517 119.084 58.458 118.958 58.5611C118.808 58.6859 118.647 58.8128 118.496 58.9432C118.377 59.05 118.264 59.1587 118.149 59.2724C118.008 59.3964 117.87 59.5189 117.731 59.6536C117.618 59.7632 117.515 59.8755 117.409 59.9846C117.284 60.1104 117.162 60.2359 117.05 60.3612L117.037 60.3733C116.931 60.4856 116.841 60.6059 116.738 60.7145C116.625 60.846 116.507 60.9787 116.404 61.1093C116.314 61.2286 116.224 61.3474 116.14 61.4667C116.035 61.5981 115.931 61.7296 115.842 61.8618C115.758 61.9812 115.68 62.1061 115.597 62.2203C115.513 62.354 115.424 62.4854 115.34 62.6196C115.263 62.7426 115.202 62.8684 115.131 62.9989C115.057 63.134 114.98 63.2659 114.91 63.3977C114.839 63.524 114.794 63.6457 114.729 63.7812C114.665 63.9116 114.597 64.044 114.543 64.1754C114.485 64.3068 114.443 64.4405 114.395 64.565C114.36 64.6486 114.327 64.7326 114.295 64.8175C114.325 64.8923 114.353 64.9633 114.382 65.0343C114.431 65.1527 114.473 65.2781 114.52 65.3946C114.575 65.5353 114.646 65.6736 114.709 65.8115C114.764 65.9308 114.819 66.0558 114.883 66.1714C114.951 66.3129 115.028 66.4443 115.105 66.5827C115.172 66.7005 115.237 66.8181 115.305 66.9364C115.388 67.0743 115.477 67.2104 115.561 67.3418C115.639 67.4574 115.716 67.5753 115.793 67.6956C115.89 67.827 115.992 67.9654 116.092 68.0968C116.183 68.2096 116.256 68.3257 116.349 68.4371C116.459 68.569 116.571 68.7013 116.68 68.8327C116.78 68.945 116.869 69.0634 116.972 69.1738C117.092 69.2978 117.217 69.4311 117.342 69.556C117.445 69.668 117.551 69.7775 117.66 69.8898C117.792 70.0156 117.93 70.1407 118.072 70.2729C118.181 70.3751 118.293 70.4879 118.412 70.5901C118.557 70.7159 118.718 70.8418 118.869 70.9676C118.988 71.0706 119.106 71.1765 119.232 71.2721C120.087 71.9463 121.039 72.5935 122.086 73.2037C128.568 76.9705 137.397 78.5617 145.882 77.9702C145.963 77.9656 146.043 77.9572 146.125 77.9516C146.043 77.9573 145.963 77.9647 145.88 77.9694C144.512 77.1777 143.686 76.1353 143.686 74.996C143.686 72.4535 147.812 70.3961 152.904 70.3961C157.156 70.3961 160.733 71.8285 161.797 73.7795H161.798C162.157 73.5989 162.505 73.4057 162.855 73.2038C167.036 70.7898 169.672 67.8224 170.774 64.7125C170.646 64.3495 170.494 63.9863 170.32 63.6271Z" fill="#EEF7F6"/>
<path d="M149.21 49.459H149.198C149.195 49.458 149.194 49.458 149.192 49.458C149.192 49.458 149.192 49.458 149.191 49.458C146.844 49.885 144.739 50.5654 143.006 51.4298C145.085 51.4479 147.164 51.5946 149.198 51.8724H149.21C154.269 52.5507 159.061 54.0318 162.989 56.318C165.875 57.9918 168.016 59.9405 169.408 62.0201C169.74 61.7601 170.047 61.4918 170.322 61.2127C170.014 60.5608 169.637 59.9187 169.19 59.291C169.186 59.2845 169.18 59.2779 169.175 59.2714C169.02 59.0537 168.856 58.8382 168.684 58.6242C168.646 58.5764 168.606 58.5286 168.567 58.4812C168.402 58.2807 168.232 58.0818 168.053 57.885C168.037 57.8678 168.023 57.8502 168.007 57.833C167.813 57.6207 167.607 57.4114 167.396 57.2034C167.352 57.1598 167.307 57.1161 167.262 57.073C167.049 56.8683 166.831 56.6654 166.603 56.4653C166.599 56.462 166.595 56.4588 166.592 56.455C166.354 56.2484 166.106 56.0446 165.851 55.8426C165.805 55.8059 165.758 55.7688 165.71 55.7326C165.193 55.3296 164.641 54.9377 164.052 54.5575C164.005 54.5269 163.957 54.4966 163.909 54.466C163.61 54.2757 163.304 54.088 162.987 53.9041C162.954 53.8847 162.918 53.8669 162.885 53.8475C162.477 53.6125 162.059 53.3874 161.634 53.1696C161.486 53.094 161.335 53.021 161.185 52.9477C160.85 52.7833 160.51 52.6236 160.166 52.4694C160.011 52.4002 159.857 52.3301 159.699 52.2632C159.272 52.0804 158.839 51.9043 158.398 51.7368C158.334 51.7121 158.271 51.6852 158.206 51.6611C157.705 51.474 157.195 51.2994 156.68 51.1322C156.519 51.0802 156.356 51.032 156.195 50.9817C155.816 50.8648 155.435 50.7529 155.05 50.6462C154.878 50.5988 154.707 50.5515 154.535 50.5059C154.198 50.4181 153.859 50.335 153.519 50.2547C153.461 50.2408 153.404 50.2274 153.346 50.2138C153.267 50.1957 153.189 50.1758 153.11 50.1581C153.042 50.1428 152.976 50.1256 152.908 50.1108C152.881 50.1047 152.854 50.0972 152.826 50.0913C152.669 50.0574 152.509 50.0286 152.351 49.9961C152.167 49.9584 151.984 49.9213 151.799 49.8856C151.679 49.8624 151.561 49.836 151.44 49.8136C151.413 49.8085 151.386 49.8042 151.359 49.7997C151.26 49.7815 151.161 49.7657 151.062 49.7486C151.01 49.7392 150.958 49.7306 150.905 49.7216C150.767 49.6975 150.628 49.6724 150.489 49.6501C150.483 49.6488 150.476 49.6479 150.47 49.647C150.353 49.6279 150.236 49.6097 150.119 49.5917C149.848 49.5499 149.576 49.5095 149.303 49.4728C149.272 49.4681 149.241 49.4631 149.21 49.459Z" fill="#E4F3F0"/>
<path d="M162.986 56.3179C159.058 54.0316 154.267 52.5506 149.207 51.8722H149.195C147.161 51.5945 145.082 51.4479 143.003 51.4297C142.998 51.432 142.993 51.4348 142.988 51.4376C139.916 52.9735 138.016 55.0972 138.016 57.4406C138.016 62.1364 145.644 65.9433 155.051 65.9433C161.083 65.9433 166.376 64.3814 169.403 62.0214C169.404 62.0209 169.405 62.0204 169.405 62.02C168.013 59.9404 165.872 57.9918 162.986 56.3179Z" fill="#F6FFFE"/>
<path d="M109.676 79.7256L115.395 76.4026C114.454 75.857 113.598 75.8069 112.98 76.1663L110.466 77.6275L109.013 78.472L108.328 78.8704C108.479 78.9392 108.631 79.0176 108.785 79.1067C109.09 79.2832 109.389 79.4911 109.676 79.7256Z" fill="#7A797A"/>
<path d="M118.565 83.4867C118.701 83.1435 118.78 82.7354 118.782 82.261C118.788 80.1052 117.271 77.4832 115.397 76.4023L109.678 79.7253C111.673 81.3509 113.17 84.2472 113.164 86.6815C113.163 86.8404 113.154 86.9926 113.141 87.1402L116.699 85.0731L117.791 84.439C118.13 84.2412 118.394 83.9162 118.565 83.4867Z" fill="#7A797A"/>
<path d="M81.7703 92.7231C81.819 92.705 81.8714 92.6943 81.9219 92.6794C81.9838 92.6614 82.0439 92.64 82.1085 92.6269C82.1675 92.6154 82.2301 92.6116 82.2909 92.6042C82.3509 92.5968 82.4093 92.5856 82.4712 92.5823C82.5352 92.5796 82.6026 92.5851 82.6684 92.5865C82.7311 92.5879 82.792 92.5851 82.8565 92.5907C82.9178 92.5963 82.9819 92.6102 83.0447 92.6196C83.1169 92.6306 83.1876 92.6376 83.2615 92.6539C83.314 92.6649 83.3682 92.6845 83.4212 92.6985C83.5085 92.7216 83.5945 92.7421 83.6835 92.7722C83.717 92.7839 83.7513 92.8005 83.7848 92.8126C84.0394 92.9069 84.3001 93.0252 84.5678 93.1798L108.787 79.1059C108.633 79.0167 108.481 78.9382 108.33 78.8696C107.294 78.3947 106.363 78.396 105.665 78.8013L81.4473 92.8744C81.4513 92.8721 81.4554 92.8711 81.4591 92.8688C81.4942 92.8487 81.5325 92.8348 81.5687 92.8167C81.6346 92.7839 81.7002 92.7491 81.7703 92.7231Z" fill="#597575"/>
<path d="M109.679 79.7253C109.391 79.4909 109.093 79.2828 108.788 79.1064L84.5684 93.1804C86.9934 94.5802 88.954 97.9702 88.9456 100.757C88.9452 100.93 88.9368 101.096 88.9214 101.256C88.9121 101.356 88.895 101.448 88.8799 101.542C88.8707 101.6 88.8652 101.662 88.854 101.718C88.838 101.797 88.8151 101.87 88.7952 101.946C88.7784 102.01 88.7647 102.077 88.7449 102.138C88.725 102.2 88.699 102.255 88.6762 102.315C88.65 102.382 88.6264 102.453 88.5965 102.516C88.5731 102.566 88.5446 102.609 88.5193 102.656C88.4837 102.722 88.4506 102.79 88.4111 102.85C88.3827 102.894 88.3498 102.931 88.3191 102.972C88.2771 103.028 88.2369 103.088 88.1911 103.139C88.1559 103.179 88.1162 103.211 88.0786 103.248C88.0326 103.293 87.9883 103.341 87.939 103.381C87.8941 103.418 87.8448 103.447 87.7977 103.48C87.7529 103.51 87.7108 103.545 87.664 103.572L111.883 89.4977C112.581 89.0922 113.042 88.2806 113.143 87.1403C113.156 86.9927 113.164 86.8405 113.165 86.6817C113.171 84.2473 111.675 81.3509 109.679 79.7253Z" fill="#233C3B"/>
<path d="M88.0778 103.248C88.1153 103.211 88.155 103.179 88.1903 103.139C88.236 103.088 88.2764 103.028 88.3183 102.971C88.3489 102.931 88.3819 102.894 88.4103 102.85C88.4497 102.79 88.4829 102.722 88.5185 102.656C88.5438 102.609 88.5723 102.566 88.5957 102.516C88.6256 102.453 88.6489 102.382 88.6754 102.315C88.6981 102.255 88.7242 102.2 88.7441 102.138C88.7639 102.077 88.7777 102.009 88.7943 101.945C88.8143 101.87 88.8372 101.797 88.8532 101.717C88.8643 101.662 88.8699 101.6 88.8791 101.542C88.8941 101.448 88.9113 101.356 88.9206 101.256C88.936 101.096 88.9443 100.93 88.9448 100.757C88.9532 97.9701 86.9927 94.5802 84.5675 93.1803C84.2999 93.0257 84.0389 92.9073 83.7845 92.8131C83.751 92.801 83.7167 92.7843 83.6832 92.7727C83.5943 92.7426 83.5082 92.7221 83.4209 92.6989C83.3679 92.685 83.3137 92.6654 83.2612 92.6543C83.1873 92.638 83.1165 92.6311 83.0444 92.62C82.9817 92.6107 82.9176 92.5968 82.8563 92.5911C82.7917 92.5855 82.7309 92.5884 82.6681 92.587C82.6023 92.5855 82.5349 92.5801 82.4709 92.5828C82.4091 92.586 82.3506 92.5971 82.2907 92.6047C82.2299 92.6121 82.1673 92.6158 82.1083 92.6274C82.0437 92.6404 81.9835 92.6618 81.9216 92.6799C81.8713 92.6947 81.8187 92.7055 81.77 92.7235C81.6999 92.7499 81.6343 92.7844 81.5683 92.8173C81.532 92.8353 81.4938 92.8493 81.4587 92.8693C80.6651 93.3239 80.1714 94.2984 80.168 95.689C80.1677 95.7605 80.1742 95.8339 80.1768 95.9063C80.1884 96.268 80.2315 96.638 80.304 97.0123C80.7799 99.474 82.4933 102.085 84.5391 103.267C85.8305 104.013 86.9901 104.036 87.7969 103.48C87.8441 103.447 87.8935 103.418 87.9383 103.381C87.9873 103.341 88.0318 103.293 88.0778 103.248ZM84.5527 102.365C82.5666 101.218 80.9567 98.4298 80.9634 96.1422C80.9696 93.854 82.59 92.9366 84.5764 94.0831C86.5673 95.2323 88.1763 98.0166 88.1705 100.303C88.1638 102.59 86.5434 103.515 84.5527 102.365Z" fill="#656464"/>
<path d="M84.5778 94.0824C82.5914 92.9361 80.9711 93.8535 80.9649 96.1415C80.9581 98.4292 82.568 101.218 84.5541 102.364C86.5448 103.514 88.1653 102.59 88.1719 100.302C88.1779 98.016 86.5687 95.2315 84.5778 94.0824Z" fill="#304747"/>
</svg>
