<svg width="242" height="164" viewBox="0 0 242 164" fill="none" xmlns="http://www.w3.org/2000/svg">
<path d="M183.644 116.719H95.238C119.39 108.538 136.773 85.6824 136.773 58.7667C136.773 31.851 119.39 8.9958 95.238 0.814355H183.644C215.65 0.814355 241.596 26.7606 241.596 58.7667C241.596 90.7729 215.65 116.719 183.644 116.719Z" stroke="#B6D3D2" stroke-width="0.45"/>
<path d="M90.0017 163.54H1.59611C25.7477 155.359 43.1308 132.504 43.1308 105.588C43.1308 78.6723 25.7477 55.8171 1.59611 47.6356H90.0017C122.008 47.6356 147.954 73.5818 147.954 105.588C147.954 137.594 122.008 163.54 90.0017 163.54Z" stroke="#B6D3D2" stroke-width="0.45"/>
<path d="M47 140.355C71.7598 132.608 89.7267 109.491 89.7267 82.1773C89.7267 54.8639 71.7598 31.7468 47 24H136.823C168.953 24 195 50.0469 195 82.1773C195 114.308 168.953 140.355 136.823 140.355H47Z" fill="#1D4A48"/>
<path d="M94.4799 106.458L188.306 63.1533L176.073 89.5764L174.361 119.547L130.689 109.638L91.2993 114.654L94.4799 106.458Z" fill="#143230"/>
<path d="M191.393 36L140.504 49.2116L160.988 64.0134L191.393 36Z" fill="#D4D6D6"/>
<path d="M166.071 95.9413L191.393 36L160.988 64.0134L149.557 74.5449L143.196 80.4055L166.071 95.9413Z" fill="#DBDDDD"/>
<path d="M160.988 64.0134L140.504 49.2116L130.351 41.8718L149.557 74.5449L160.988 64.0134Z" fill="#E5E8E8"/>
<path d="M143.196 80.4055L149.557 74.5449L130.351 41.8718L122.373 53.8601L121.029 56.0144L106.742 77.3473L143.196 80.4055Z" fill="#F4F6F6"/>
<path d="M166.071 95.9413L143.196 80.4055L94.5086 106.217L166.071 95.9413Z" fill="#DFE1E1"/>
<path d="M143.196 80.4055L106.742 77.3473L72 74.5449L94.5086 106.217L143.196 80.4055Z" fill="#F9FBFB"/>
<path d="M72 74.5449L106.742 77.3473L108.699 57.4076L72 74.5449Z" fill="#DBDDDD"/>
<path fill-rule="evenodd" clip-rule="evenodd" d="M121.029 56.0144L106.742 77.3473L108.699 57.4076L121.029 56.0144Z" fill="#E9ECEB"/>
<path d="M122.373 53.8601L108.699 57.4076L121.029 56.0144L122.373 53.8601Z" fill="#DBDDDD"/>
</svg>
